<?xml version="1.0" encoding="utf-8"?>
<!-- Generator: Adobe Illustrator 16.0.0, SVG Export Plug-In . SVG Version: 6.00 Build 0)  -->
<!DOCTYPE svg PUBLIC "-//W3C//DTD SVG 1.1//EN" "http://www.w3.org/Graphics/SVG/1.1/DTD/svg11.dtd">
<svg version="1.1" id="Layer_1" xmlns="http://www.w3.org/2000/svg" xmlns:xlink="http://www.w3.org/1999/xlink" x="0px" y="0px"
	 width="960px" height="560px" viewBox="0 0 960 560" enable-background="new 0 0 960 560" xml:space="preserve">
<g>
	<g>
		<path fill="#166088" d="M329.109,280.756l-16.792,78.846c-0.438,2.19-0.73,3.505-0.73,4.673c0,3.212,1.606,5.402,7.301,5.402
			c5.84,0,13.433-8.177,19.273-12.849h4.964c-6.716,6.716-23.216,26.136-34.604,26.136c-11.243,0-18.105-4.965-18.105-15.915
			c0-2.19,0.292-4.673,0.876-7.447l16.207-75.926L329.109,280.756z"/>
		<path fill="#166088" d="M384.008,329.962c0.876,0.876,2.19,1.313,4.234,1.313c6.862,0,9.929-4.964,15.331-7.154l0.584,3.066
			c-4.526,5.694-12.119,10.513-20.587,12.849c-2.774,29.349-18.689,43.804-33.291,43.804c-15.624,0-22.34-6.57-22.34-23.945
			c0-35.919,18.251-51.396,38.401-51.396C380.212,308.498,383.716,319.303,384.008,329.962z M372.765,341.497
			c-4.234,0-6.132-3.066-6.132-6.571c0-4.234,2.482-8.761,6.424-10.221c-0.438-4.818-2.044-7.592-6.132-7.592
			c-13.725,0-19.565,29.786-19.565,41.467c0,8.761,4.088,11.097,9.783,11.097C366.049,369.677,371.013,355.66,372.765,341.497z"/>
		<path fill="#166088" d="M433.504,320.325c0-3.505-2.19-4.964-5.402-4.964c-12.265,0-20.149,23.799-20.149,39.568
			c0,8.614,1.752,15.623,10.659,15.623c10.367,0,18.689-6.132,25.406-13.725h4.964c-7.009,7.885-14.894,26.136-40.737,26.136
			c-12.119,0-20.003-6.717-20.003-23.946c0-21.317,9.199-49.498,37.525-49.498c7.884,0,16.061,2.045,16.061,10.075
			c0,1.606-0.146,2.921-0.73,4.818c-0.73-0.438-1.898-0.876-3.65-0.876c-1.314,0-2.774,0.292-4.672,0.876
			C433.212,322.808,433.504,321.493,433.504,320.325z"/>
		<path fill="#166088" d="M510.596,309.958l-10.513,49.644c-0.292,1.606-0.584,3.213-0.584,4.526c0,3.213,1.46,5.549,7.3,5.549
			c5.841,0,13.434-8.177,19.273-12.849h4.965c-6.717,6.716-23.216,26.136-34.604,26.136c-9.491,0-15.916-3.504-17.813-11.097
			c-4.38,5.986-10.951,11.973-19.858,11.973c-14.017,0-18.105-9.929-18.105-18.543c0-25.114,9.053-55.193,38.255-55.193
			c3.504,0,7.154,1.461,9.782,3.65l0.876-3.796H510.596z M460.368,361.354c0,8.761,4.818,10.366,8.468,10.366
			c3.358,0,6.571-3.212,9.345-7.3c0.146-1.461,0.438-3.066,0.876-4.819l8.176-38.692c-2.336-2.044-5.11-2.628-7.154-2.628
			C469.128,318.281,460.368,341.497,460.368,361.354z"/>
		<path fill="#166088" d="M554.543,280.756l-16.792,78.846c-0.438,2.19-0.729,3.505-0.729,4.673c0,3.212,1.605,5.402,7.3,5.402
			c5.841,0,13.434-8.177,19.274-12.849h4.964c-6.717,6.716-23.216,26.136-34.604,26.136c-11.243,0-18.105-4.965-18.105-15.915
			c0-2.19,0.292-4.673,0.876-7.447l16.207-75.926L554.543,280.756z"/>
		<path fill="#166088" d="M554.688,359.748c0-18.543,7.884-51.104,34.458-51.104c11.974,0,18.689,4.964,18.689,15.185
			c0,17.813-19.127,28.034-32.998,29.786c-0.292,2.337-0.438,4.526-0.438,6.279c0,9.637,4.818,12.557,10.513,12.557
			c6.863,0,12.703-3.942,18.689-9.345c0,15.77-12.703,19.857-27.304,19.857C562.28,382.964,554.688,372.305,554.688,359.748z
			 M593.965,316.383c-8.177,0-14.893,16.499-17.959,30.225c13.433-0.146,22.924-11.682,23.069-22.048
			C599.075,321.493,598.346,316.383,593.965,316.383z"/>
	</g>
	<g>
		<g>
			<g>
				<path fill="#166088" d="M620.309,264.283c-7.077-7.312-18.781-7.504-26.094-0.427c-9.074,8.781-10.911,33.54-10.985,34.589
					c-0.069,0.985,0.733,1.812,1.719,1.777c1.053-0.04,25.857-1.064,34.932-9.846C627.192,283.301,627.384,271.595,620.309,264.283z
					 M600.376,283.572c-3.56-3.679-3.464-9.568,0.216-13.128c3.678-3.561,9.568-3.463,13.127,0.215
					c3.561,3.679,3.464,9.568-0.215,13.128C609.825,287.348,603.936,287.25,600.376,283.572z"/>
			</g>
		</g>
	</g>
</g>
</svg>
